<?xml version="1.0" encoding="UTF-8" standalone="no"?>
<svg
   width="945"
   height="241"
   viewBox="0 0 945 241"
   version="1.1"
   id="svg4"
   xmlns="http://www.w3.org/2000/svg"
   xmlns:svg="http://www.w3.org/2000/svg">
  <defs
     id="defs4" />
  <rect
     width="945"
     height="241"
     fill="#ffffff"
     id="rect1" />
  <g
     id="text3"
     style="font-weight:900;font-size:170px;font-family:Inter, Arial, sans-serif;letter-spacing:-5"
     aria-label="gofromdb">
    <path
       style="fill:#00a6bb"
       d="m 106.79297,183.68945 c 29.30176,0 48.80859,-14.02832 48.80859,-40.17578 V 54.197266 h -33.03711 v 16.269531 h -0.66406 C 118.24805,61.003906 109.2002,53.035156 95.503906,53.035156 c -18.427734,0 -36.357422,14.028321 -36.357422,47.646484 0,32.04102 16.767578,45.15625 36.523438,45.15625 12.534178,0 21.083988,-5.39551 24.653318,-14.77539 h 2.40723 v 15.77148 c 0,9.71192 -5.3125,14.44336 -16.10352,14.44336 -8.549802,0 -14.194333,-2.98828 -15.190427,-7.96875 L 62.134766,157.625 c 2.65625,15.9375 19.257812,26.06445 44.658204,26.06445 z m 1.16211,-61.59179 c -9.130861,0 -14.443361,-7.71973 -14.443361,-21.41602 0,-13.779296 5.3125,-22.080078 14.443361,-22.080078 9.21387,0 14.77539,8.300782 14.77539,22.080078 0,13.44727 -5.56152,21.41602 -14.77539,21.41602 z m 104.32129,26.5625 c 30.13183,0 47.8955,-19.25782 47.8955,-47.8125 0,-28.471683 -17.76367,-47.812504 -47.8955,-47.812504 -30.29785,0 -48.06153,19.340821 -48.06153,47.812504 0,28.55468 17.76368,47.8125 48.06153,47.8125 z m 0,-24.90235 c -8.79883,0 -14.02832,-8.5498 -14.02832,-23.07617 0,-14.609374 5.22949,-22.74414 14.02832,-22.74414 8.63281,0 13.8623,8.134766 13.8623,22.74414 0,14.52637 -5.22949,23.07617 -13.8623,23.07617 z"
       id="path4" />
    <path
       style="fill:#080d1a"
       d="m 327.6377,54.197266 h -17.68067 v -3.984375 c 0,-4.399414 1.74317,-7.304688 7.96875,-7.304688 2.49024,0 6.05957,0.498047 8.4668,1.162109 l 4.81445,-23.90625 c -3.81836,-0.913085 -12.70019,-2.65625 -21.25,-2.65625 -20.25391,0 -33.20312,11.206055 -33.20312,34.033204 v 2.65625 h -14.77539 v 24.238281 h 14.77539 V 147 h 33.20312 V 78.435547 H 327.6377 Z M 335.50391,147 h 33.36914 V 98.689453 c 0,-10.625 7.22168,-17.597656 17.09961,-17.597656 3.40332,0 8.96484,0.498047 12.28515,1.660156 V 54.363281 c -2.65625,-0.830078 -5.56152,-1.328125 -8.46679,-1.328125 -9.87793,0 -17.59766,5.810547 -20.91797,18.925781 h -0.9961 V 54.197266 h -32.37304 z m 108.13964,1.66016 c 30.13184,0 47.89551,-19.25782 47.89551,-47.8125 0,-28.471683 -17.76367,-47.812504 -47.89551,-47.812504 -30.29785,0 -48.06152,19.340821 -48.06152,47.812504 0,28.55468 17.76367,47.8125 48.06152,47.8125 z m 0,-24.90235 c -8.79882,0 -14.02832,-8.5498 -14.02832,-23.07617 0,-14.609374 5.2295,-22.74414 14.02832,-22.74414 8.63282,0 13.86231,8.134766 13.86231,22.74414 0,14.52637 -5.22949,23.07617 -13.86231,23.07617 z M 500.15234,147 h 33.36914 V 92.878906 c 0,-8.051758 4.15039,-12.949219 11.12305,-12.949219 6.80664,0 11.28906,4.897461 11.28906,12.949219 V 147 h 31.875 V 92.878906 c 0,-8.051758 4.2334,-12.949219 11.12305,-12.949219 6.88965,0 11.28906,4.897461 11.28906,12.949219 V 147 h 33.36914 V 84.412109 c 0,-19.008789 -12.20214,-31.376953 -29.88281,-31.376953 -12.36816,0 -24.4873,6.059571 -30.38086,22.41211 -5.06347,-16.352539 -12.36816,-22.41211 -24.07226,-22.41211 -11.28907,0 -21.74805,5.727539 -26.97754,20.170899 l -1.66016,-19.008789 h -30.46387 z"
       id="path5" />
    <path
       style="fill:#ffb20d"
       d="m 688.72656,148.16211 c 13.03223,0 21.91406,-6.97266 25.73242,-16.43555 h 0.83008 V 147 h 33.03711 V 23.318359 h -33.36914 v 47.148438 h -0.49805 c -3.56933,-9.462891 -12.28515,-17.431641 -26.06445,-17.431641 -18.34473,0 -36.19141,14.028321 -36.19141,47.646484 0,32.04102 16.68458,47.48047 36.52344,47.48047 z m 12.28516,-25.56641 c -9.21387,0 -14.44336,-8.21777 -14.44336,-21.91406 0,-13.779296 5.22949,-22.080078 14.44336,-22.080078 9.13086,0 14.77539,8.300782 14.77539,22.080078 0,13.44727 -5.64453,21.91406 -14.77539,21.91406 z m 118.84765,25.56641 c 19.83887,0 36.52344,-15.43945 36.52344,-47.48047 0,-33.618163 -17.84668,-47.646484 -36.1914,-47.646484 -13.7793,0 -22.49512,7.96875 -26.06446,17.431641 h -0.49804 V 23.318359 H 760.25977 V 147 h 33.0371 v -15.27344 h 0.83008 c 3.81836,9.46289 12.7002,16.43555 25.73242,16.43555 z M 807.57422,122.5957 c -9.13086,0 -14.77539,-8.46679 -14.77539,-21.91406 0,-13.779296 5.64453,-22.080078 14.77539,-22.080078 9.21387,0 14.44336,8.300782 14.44336,22.080078 0,13.69629 -5.22949,21.91406 -14.44336,21.91406 z"
       id="path6" />
  </g>
  <path
     d="m 33.557617,218.29297 c 5.200195,0 8.950195,-3.45703 8.950195,-8.87695 v -2.3877 h -8.378906 v 2.43164 h 5.654297 c -0.07324,3.83789 -2.578125,6.25488 -6.225586,6.25488 -4.013672,0 -7.060547,-3.04687 -7.060547,-8.61328 0,-5.61035 3.061524,-8.64258 6.899414,-8.64258 3.090821,0 5.185547,1.75782 6.079102,4.55567 h 2.871094 c -0.791016,-4.2334 -4.350586,-7.13379 -8.964844,-7.13379 -5.595703,0 -9.594727,4.29199 -9.594727,11.2207 0,6.89942 3.94043,11.19141 9.770508,11.19141 z m 20.324413,0.0586 c 3.354493,0 5.800782,-1.68457 6.5625,-4.16015 l -2.548828,-0.70313 c -0.615234,1.66992 -2.065429,2.51953 -3.999023,2.51953 -2.900391,0 -4.892578,-1.875 -5.024414,-5.30273 h 11.835937 v -1.09863 c 0,-6.04981 -3.662109,-8.18848 -7.133789,-8.18848 -4.467773,0 -7.368164,3.50098 -7.368164,8.52539 0,5.03906 2.929688,8.4082 7.675781,8.4082 z m -4.995117,-9.87304 c 0.161133,-2.50489 1.875,-4.7168 4.6875,-4.7168 2.695313,0 4.204102,1.93359 4.453125,4.7168 z m 18.537304,-0.29297 c 0,-2.79785 1.772461,-4.39453 4.13086,-4.39453 2.285156,0 3.691406,1.50878 3.691406,4.02832 V 218 h 2.636719 v -10.40039 c 0,-4.14551 -2.226563,-6.18164 -5.53711,-6.18164 -2.197265,0 -3.955078,0.92285 -5.009765,3.2373 l -0.01465,-3.03222 h -2.53418 V 218 h 2.636719 z m 22.27266,10.16601 c 3.354492,0 5.800781,-1.68457 6.5625,-4.16015 l -2.548829,-0.70313 c -0.615234,1.66992 -2.065429,2.51953 -3.999023,2.51953 -2.900391,0 -4.892578,-1.875 -5.024414,-5.30273 h 11.835937 v -1.09863 c 0,-6.04981 -3.662109,-8.18848 -7.133789,-8.18848 -4.467773,0 -7.368164,3.50098 -7.368164,8.52539 0,5.03906 2.929688,8.4082 7.675782,8.4082 z m -4.995118,-9.87304 c 0.161133,-2.50489 1.875,-4.7168 4.6875,-4.7168 2.695313,0 4.204102,1.93359 4.453125,4.7168 z M 100.60234,218 h 2.63672 v -10.25391 c 0,-2.21191 1.72852,-3.80859 4.08691,-3.80859 0.70313,0 1.4209,0.11719 1.58203,0.14648 v -2.65136 c -0.30761,-0.0146 -0.95214,-0.0439 -1.333,-0.0439 -1.94825,0 -3.64746,1.09863 -4.24805,2.75391 h -0.17578 v -2.51953 h -2.54883 z m 16.17891,0.38086 c 2.76855,0 4.30664,-1.4502 4.86328,-2.60742 h 0.17578 V 218 h 2.59278 v -10.7959 c 0,-5.1123 -3.94043,-5.78613 -6.1377,-5.78613 -2.53418,0 -5.34668,0.9082 -6.60644,3.88183 l 2.53418,0.83497 c 0.51269,-1.14258 1.7871,-2.40235 4.1455,-2.40235 2.27051,0 3.42774,1.17188 3.42774,3.20801 v 0.0879 c 0,1.21582 -1.28907,1.12793 -4.2041,1.49414 -3.03223,0.38086 -6.37207,1.06934 -6.37207,4.81934 0,3.22265 2.47558,5.03906 5.58105,5.03906 z m 0.4541,-2.3291 c -1.96289,0 -3.38379,-0.87891 -3.38379,-2.57813 0,-1.86035 1.68457,-2.47558 3.60352,-2.72461 1.01074,-0.13183 3.88183,-0.4248 4.32129,-0.9375 v 2.27051 c 0,2.00684 -1.62598,3.96973 -4.54102,3.96973 z m 18.55196,-14.42871 h -3.36914 v -3.89649 h -2.63672 v 3.89649 h -2.46094 v 2.25586 h 2.46094 v 10.07812 c 0,2.68067 1.66992,4.24805 4.49707,4.24805 0.67383,0 1.4209,-0.10254 1.96289,-0.29297 l -0.54199,-2.22656 c -0.43946,0.0879 -1.01075,0.17578 -1.34766,0.17578 -1.3916,0 -1.93359,-0.64453 -1.93359,-2.10938 v -9.87304 h 3.36914 z m 10.26093,16.72851 c 3.35449,0 5.80078,-1.68457 6.5625,-4.16015 l -2.54883,-0.70313 c -0.61523,1.66992 -2.06543,2.51953 -3.99902,2.51953 -2.90039,0 -4.89258,-1.875 -5.02441,-5.30273 h 11.83593 v -1.09863 c 0,-6.04981 -3.66211,-8.18848 -7.13379,-8.18848 -4.46777,0 -7.36816,3.50098 -7.36816,8.52539 0,5.03906 2.92969,8.4082 7.67578,8.4082 z m -4.99512,-9.87304 c 0.16114,-2.50489 1.875,-4.7168 4.6875,-4.7168 2.69532,0 4.20411,1.93359 4.45313,4.7168 z m 29.22305,9.90234 c 2.76855,0 4.30664,-1.4502 4.86328,-2.60742 h 0.17578 V 218 h 2.59277 v -10.7959 c 0,-5.1123 -3.94042,-5.78613 -6.13769,-5.78613 -2.53418,0 -5.34668,0.9082 -6.60645,3.88183 l 2.53418,0.83497 c 0.5127,-1.14258 1.78711,-2.40235 4.14551,-2.40235 2.27051,0 3.42774,1.17188 3.42774,3.20801 v 0.0879 c 0,1.21582 -1.28907,1.12793 -4.20411,1.49414 -3.03222,0.38086 -6.37207,1.06934 -6.37207,4.81934 0,3.22265 2.47559,5.03906 5.58106,5.03906 z m 0.4541,-2.3291 c -1.96289,0 -3.38379,-0.87891 -3.38379,-2.57813 0,-1.86035 1.68457,-2.47558 3.60352,-2.72461 1.01074,-0.13183 3.88183,-0.4248 4.32129,-0.9375 v 2.27051 c 0,2.00684 -1.62598,3.96973 -4.54102,3.96973 z M 191.57442,218 h 2.63672 v -10.25391 c 0,-2.21191 1.72851,-3.80859 4.08691,-3.80859 0.70312,0 1.4209,0.11719 1.58203,0.14648 v -2.65136 c -0.30762,-0.0146 -0.95215,-0.0439 -1.33301,-0.0439 -1.94824,0 -3.64746,1.09863 -4.24804,2.75391 h -0.17578 v -2.51953 h -2.54883 z m 17.98066,0.35156 c 3.3545,0 5.80079,-1.68457 6.5625,-4.16015 l -2.54882,-0.70313 c -0.61524,1.66992 -2.06543,2.51953 -3.99903,2.51953 -2.90039,0 -4.89258,-1.875 -5.02441,-5.30273 h 11.83594 v -1.09863 c 0,-6.04981 -3.66211,-8.18848 -7.13379,-8.18848 -4.46778,0 -7.36817,3.50098 -7.36817,8.52539 0,5.03906 2.92969,8.4082 7.67578,8.4082 z m -4.99511,-9.87304 c 0.16113,-2.50489 1.875,-4.7168 4.6875,-4.7168 2.69531,0 4.2041,1.93359 4.45312,4.7168 z m 20.7785,9.90234 c 2.76856,0 4.30664,-1.4502 4.86328,-2.60742 h 0.17578 V 218 h 2.59278 v -10.7959 c 0,-5.1123 -3.94043,-5.78613 -6.1377,-5.78613 -2.53418,0 -5.34668,0.9082 -6.60644,3.88183 l 2.53418,0.83497 c 0.51269,-1.14258 1.7871,-2.40235 4.1455,-2.40235 2.27051,0 3.42774,1.17188 3.42774,3.20801 v 0.0879 c 0,1.21582 -1.28906,1.12793 -4.2041,1.49414 -3.03223,0.38086 -6.37207,1.06934 -6.37207,4.81934 0,3.22265 2.47558,5.03906 5.58105,5.03906 z m 0.4541,-2.3291 c -1.96289,0 -3.38379,-0.87891 -3.38379,-2.57813 0,-1.86035 1.68457,-2.47558 3.60352,-2.72461 1.01074,-0.13183 3.88183,-0.4248 4.32129,-0.9375 v 2.27051 c 0,2.00684 -1.62598,3.96973 -4.54102,3.96973 z m 18.24434,2.2998 c 3.12012,0 4.21875,-1.97754 4.76074,-2.88574 h 0.29297 V 218 h 2.54883 v -21.82617 h -2.63672 v 8.07129 h -0.20508 c -0.54199,-0.86426 -1.55273,-2.82715 -4.74609,-2.82715 -4.08691,0 -6.94336,3.25195 -6.94336,8.4375 0,5.21484 2.8418,8.49609 6.92871,8.49609 z m 0.39551,-2.3584 c -3.06152,0 -4.64356,-2.72461 -4.64356,-6.16699 0,-3.39844 1.53809,-6.0498 4.64356,-6.0498 3.01758,0 4.59961,2.43164 4.59961,6.0498 0,3.64746 -1.62598,6.16699 -4.59961,6.16699 z m 12.01875,7.93946 c 0.27832,0.13183 0.9961,0.30761 1.9336,0.30761 2.31445,0 3.89648,-1.18652 4.89257,-3.79394 l 7.19239,-18.82324 h -2.8711 l -3.51562,9.71191 c -0.5127,1.4209 -0.89356,2.8418 -1.25977,4.2041 -0.38086,-1.3623 -0.74707,-2.76855 -1.25976,-4.2041 l -3.48633,-9.71191 h -2.88574 l 6.25488,16.46484 -0.46875,1.36231 c -0.80567,2.34375 -1.96289,2.69531 -3.57422,2.2705 l -0.27832,-0.0732 z m 25.6125,-16.46485 h -9.58007 v 2.43164 h 9.58007 z m 11.16915,-5.84472 h -3.36914 v -3.89649 h -2.63672 v 3.89649 h -2.46094 v 2.25586 h 2.46094 v 10.07812 c 0,2.68067 1.66992,4.24805 4.49707,4.24805 0.67383,0 1.4209,-0.10254 1.96289,-0.29297 l -0.54199,-2.22656 c -0.43946,0.0879 -1.01074,0.17578 -1.34766,0.17578 -1.3916,0 -1.93359,-0.64453 -1.93359,-2.10938 v -9.87304 h 3.36914 z m 10.0412,16.72851 c 4.46777,0 7.48535,-3.38379 7.48535,-8.4375 0,-5.12695 -3.01758,-8.49609 -7.48535,-8.49609 -4.45313,0 -7.45606,3.36914 -7.45606,8.49609 0,5.05371 3.00293,8.4375 7.45606,8.4375 z m 0,-2.3584 c -3.2666,0 -4.77539,-2.85644 -4.77539,-6.0791 0,-3.2666 1.50879,-6.13769 4.77539,-6.13769 3.31054,0 4.81933,2.88574 4.81933,6.13769 0,3.22266 -1.50879,6.0791 -4.81933,6.0791 z m 20.99826,-8.52539 h -9.58008 v 2.43164 h 9.58008 z M 328.99609,218 h 2.63672 v -10.25391 c 0,-2.21191 1.72852,-3.80859 4.08692,-3.80859 0.70312,0 1.42089,0.11719 1.58203,0.14648 v -2.65136 c -0.30762,-0.0146 -0.95215,-0.0439 -1.33301,-0.0439 -1.94824,0 -3.64746,1.09863 -4.24805,2.75391 h -0.17578 v -2.51953 h -2.54883 z m 17.14569,0.20508 c 2.15332,0 3.94043,-0.87891 5.00977,-3.2666 V 218 h 2.54883 v -16.37695 h -2.65137 v 9.81445 c 0,2.79785 -1.77246,4.39453 -4.11621,4.39453 -2.28516,0 -3.70605,-1.50879 -3.70605,-4.02832 v -10.18066 h -2.63672 v 10.40039 c 0,4.14551 2.24121,6.18164 5.55175,6.18164 z m 15.12424,-10.01953 c 0,-2.79785 1.77246,-4.39453 4.13086,-4.39453 2.28516,0 3.69141,1.50878 3.69141,4.02832 V 218 h 2.63672 v -10.40039 c 0,-4.14551 -2.22657,-6.18164 -5.53711,-6.18164 -2.19727,0 -3.95508,0.92285 -5.00977,3.2373 l -0.0147,-3.03222 H 358.6293 V 218 h 2.63672 z m 33.36856,10.10742 c 5.2002,0 8.9502,-3.45703 8.9502,-8.87695 v -2.3877 h -8.37891 v 2.43164 h 5.6543 c -0.0732,3.83789 -2.57813,6.25488 -6.22559,6.25488 -4.01367,0 -7.06054,-3.04687 -7.06054,-8.61328 0,-5.61035 3.06152,-8.64258 6.89941,-8.64258 3.09082,0 5.18555,1.75782 6.0791,4.55567 h 2.8711 c -0.79102,-4.2334 -4.35059,-7.13379 -8.96485,-7.13379 -5.5957,0 -9.59473,4.29199 -9.59473,11.2207 0,6.89942 3.94043,11.19141 9.77051,11.19141 z m 20.10468,0.0586 c 4.46777,0 7.48535,-3.38379 7.48535,-8.4375 0,-5.12695 -3.01758,-8.49609 -7.48535,-8.49609 -4.45313,0 -7.45606,3.36914 -7.45606,8.49609 0,5.05371 3.00293,8.4375 7.45606,8.4375 z m 0,-2.3584 c -3.2666,0 -4.77539,-2.85644 -4.77539,-6.0791 0,-3.2666 1.50879,-6.13769 4.77539,-6.13769 3.31054,0 4.81933,2.88574 4.81933,6.13769 0,3.22266 -1.50879,6.0791 -4.81933,6.0791 z M 435.10001,218 h 2.63671 v -10.3125 c 0,-2.60742 1.74317,-3.95508 3.66211,-3.95508 1.84571,0 3.20801,1.21582 3.20801,3.03223 V 218 h 2.63672 v -10.69336 c 0,-2.06543 1.34766,-3.57422 3.55957,-3.57422 1.75781,0 3.31055,0.9375 3.31055,3.2959 V 218 h 2.63672 v -11.04492 c 0,-3.79395 -2.31446,-5.625 -5.15625,-5.625 -2.37305,0 -4.37989,1.27441 -5.15625,3.33984 -0.58594,-2.02148 -2.02149,-3.33984 -4.17481,-3.33984 -1.93359,0 -3.77929,1.08398 -4.58496,3.2959 l -0.0147,-3.00293 h -2.56347 z m 26.57928,0 h 2.63672 v -16.37695 h -2.63672 z m 1.33301,-19.05762 c 1.01074,0 1.8457,-0.77636 1.8457,-1.74316 0,-0.9668 -0.83496,-1.74317 -1.8457,-1.74317 -0.9961,0 -1.83106,0.77637 -1.83106,1.74317 0,0.9668 0.83496,1.74316 1.83106,1.74316 z m 12.89767,19.40918 c 3.20801,0 5.81543,-1.74316 6.69434,-4.6582 l -2.51953,-0.71777 c -0.4834,1.77246 -1.97754,3.01757 -4.17481,3.01757 -3.2666,0 -4.77539,-2.85644 -4.77539,-6.0791 0,-3.2666 1.50879,-6.13769 4.77539,-6.13769 2.15332,0 3.61817,1.20117 4.10157,2.88574 l 2.53418,-0.71777 c -0.89356,-2.85645 -3.47168,-4.52637 -6.63575,-4.52637 -4.45312,0 -7.45605,3.36914 -7.45605,8.49609 0,5.05371 3.00293,8.4375 7.45605,8.4375 z M 486.68359,218 h 2.63672 v -10.25391 c 0,-2.21191 1.72852,-3.80859 4.08692,-3.80859 0.70312,0 1.42089,0.11719 1.58203,0.14648 v -2.65136 c -0.30762,-0.0146 -0.95215,-0.0439 -1.33301,-0.0439 -1.94824,0 -3.64746,1.09863 -4.24805,2.75391 h -0.17578 v -2.51953 h -2.54883 z m 17.76093,0.35156 c 4.46777,0 7.48535,-3.38379 7.48535,-8.4375 0,-5.12695 -3.01758,-8.49609 -7.48535,-8.49609 -4.45313,0 -7.45606,3.36914 -7.45606,8.49609 0,5.05371 3.00293,8.4375 7.45606,8.4375 z m 0,-2.3584 c -3.2666,0 -4.77539,-2.85644 -4.77539,-6.0791 0,-3.2666 1.50879,-6.13769 4.77539,-6.13769 3.31055,0 4.81933,2.88574 4.81933,6.13769 0,3.22266 -1.50878,6.0791 -4.81933,6.0791 z m 17.18967,2.3584 c 3.83789,0 6.45996,-2.09472 6.45996,-4.96582 0,-2.24121 -1.3916,-3.7207 -4.36524,-4.42383 l -2.47558,-0.58593 c -1.91895,-0.45411 -2.75391,-1.12793 -2.75391,-2.34375 0,-1.36231 1.46484,-2.37305 3.41309,-2.37305 2.10937,0 3.03222,1.14258 3.48632,2.31445 l 2.3877,-0.61523 c -0.74707,-2.29981 -2.51953,-3.94043 -5.88867,-3.94043 -3.48633,0 -6.06446,1.96289 -6.06446,4.77539 0,2.2998 1.4209,3.76465 4.39454,4.46777 l 2.72461,0.64453 c 1.61132,0.38086 2.40234,1.12793 2.40234,2.25586 0,1.34766 -1.46484,2.47559 -3.75,2.47559 -1.96289,0 -3.2959,-0.80566 -3.76465,-2.60742 l -2.50488,0.60058 c 0.58594,2.82715 2.92969,4.32129 6.29883,4.32129 z m 17.4533,0 c 3.3545,0 5.80079,-1.68457 6.5625,-4.16015 l -2.54882,-0.70313 c -0.61524,1.66992 -2.06543,2.51953 -3.99903,2.51953 -2.90039,0 -4.89258,-1.875 -5.02441,-5.30273 h 11.83594 v -1.09863 c 0,-6.04981 -3.66211,-8.18848 -7.13379,-8.18848 -4.46778,0 -7.36817,3.50098 -7.36817,8.52539 0,5.03906 2.92969,8.4082 7.67578,8.4082 z m -4.99511,-9.87304 c 0.16113,-2.50489 1.875,-4.7168 4.6875,-4.7168 2.69531,0 4.2041,1.93359 4.45312,4.7168 z M 549.99298,218 h 2.63672 v -10.25391 c 0,-2.21191 1.72852,-3.80859 4.08691,-3.80859 0.70313,0 1.4209,0.11719 1.58204,0.14648 v -2.65136 c -0.30762,-0.0146 -0.95215,-0.0439 -1.33301,-0.0439 -1.94824,0 -3.64746,1.09863 -4.24805,2.75391 h -0.17578 v -2.51953 h -2.54883 z m 16.79413,0 h 2.76855 l 6.25489,-16.37695 h -2.88575 l -3.48632,9.71191 c -0.5127,1.4209 -0.89356,2.85645 -1.25977,4.21875 -0.38086,-1.3623 -0.76172,-2.79785 -1.27441,-4.21875 l -3.48633,-9.71191 h -2.88574 z m 12.42889,0 h 2.63672 V 201.62305 H 579.216 Z m 1.33301,-19.05762 c 1.01074,0 1.8457,-0.77636 1.8457,-1.74316 0,-0.9668 -0.83496,-1.74317 -1.8457,-1.74317 -0.99609,0 -1.83105,0.77637 -1.83105,1.74317 0,0.9668 0.83496,1.74316 1.83105,1.74316 z m 12.89765,19.40918 c 3.208,0 5.81542,-1.74316 6.69433,-4.6582 l -2.51953,-0.71777 c -0.4834,1.77246 -1.97754,3.01757 -4.1748,3.01757 -3.26661,0 -4.7754,-2.85644 -4.7754,-6.0791 0,-3.2666 1.50879,-6.13769 4.7754,-6.13769 2.15332,0 3.61816,1.20117 4.10156,2.88574 l 2.53418,-0.71777 c -0.89356,-2.85645 -3.47168,-4.52637 -6.63574,-4.52637 -4.45313,0 -7.45606,3.36914 -7.45606,8.49609 0,5.05371 3.00293,8.4375 7.45606,8.4375 z m 17.65844,0 c 3.35449,0 5.80078,-1.68457 6.5625,-4.16015 l -2.54883,-0.70313 c -0.61523,1.66992 -2.06543,2.51953 -3.99902,2.51953 -2.90039,0 -4.89258,-1.875 -5.02441,-5.30273 h 11.83593 v -1.09863 c 0,-6.04981 -3.6621,-8.18848 -7.13378,-8.18848 -4.46778,0 -7.36817,3.50098 -7.36817,8.52539 0,5.03906 2.92969,8.4082 7.67578,8.4082 z m -4.99511,-9.87304 c 0.16113,-2.50489 1.875,-4.7168 4.6875,-4.7168 2.69531,0 4.2041,1.93359 4.45312,4.7168 z m 32.25524,-6.85547 h -3.77929 v -1.59668 c 0,-1.58203 0.70312,-2.43164 2.3291,-2.43164 0.73242,0 1.14258,0.16113 1.4209,0.24902 l 0.73242,-2.25586 c -0.39551,-0.17578 -1.21582,-0.43945 -2.46094,-0.43945 -2.38769,0 -4.6582,1.45019 -4.6582,4.29199 v 2.18262 h -3.22266 v 2.25586 h 3.22266 V 218 h 2.63672 v -14.12109 h 3.77929 z M 642.15155,218 h 2.63672 v -10.25391 c 0,-2.21191 1.72851,-3.80859 4.08691,-3.80859 0.70313,0 1.4209,0.11719 1.58203,0.14648 v -2.65136 c -0.30761,-0.0146 -0.95214,-0.0439 -1.333,-0.0439 -1.94825,0 -3.64746,1.09863 -4.24805,2.75391 h -0.17578 v -2.51953 h -2.54883 z m 17.76093,0.35156 c 4.46777,0 7.48535,-3.38379 7.48535,-8.4375 0,-5.12695 -3.01758,-8.49609 -7.48535,-8.49609 -4.45313,0 -7.45606,3.36914 -7.45606,8.49609 0,5.05371 3.00293,8.4375 7.45606,8.4375 z m 0,-2.3584 c -3.26661,0 -4.7754,-2.85644 -4.7754,-6.0791 0,-3.2666 1.50879,-6.13769 4.7754,-6.13769 3.31054,0 4.81933,2.88574 4.81933,6.13769 0,3.22266 -1.50879,6.0791 -4.81933,6.0791 z M 671.53577,218 h 2.63672 v -10.3125 c 0,-2.60742 1.74316,-3.95508 3.6621,-3.95508 1.84571,0 3.20801,1.21582 3.20801,3.03223 V 218 h 2.63672 v -10.69336 c 0,-2.06543 1.34766,-3.57422 3.55957,-3.57422 1.75781,0 3.31055,0.9375 3.31055,3.2959 V 218 h 2.63672 v -11.04492 c 0,-3.79395 -2.31446,-5.625 -5.15625,-5.625 -2.37305,0 -4.37989,1.27441 -5.15625,3.33984 -0.58594,-2.02148 -2.02149,-3.33984 -4.17481,-3.33984 -1.93359,0 -3.77929,1.08398 -4.58496,3.2959 l -0.0146,-3.00293 h -2.56347 z m 35.0531,5.93262 c 0.27832,0.13183 0.99609,0.30761 1.93359,0.30761 2.31445,0 3.89649,-1.18652 4.89258,-3.79394 l 7.19238,-18.82324 h -2.87109 l -3.51563,9.71191 c -0.51269,1.4209 -0.89355,2.8418 -1.25976,4.2041 -0.38086,-1.3623 -0.74707,-2.76855 -1.25977,-4.2041 l -3.48633,-9.71191 h -2.88574 l 6.25488,16.46484 -0.46875,1.36231 c -0.80566,2.34375 -1.96289,2.69531 -3.57421,2.2705 l -0.27832,-0.0732 z m 23.50311,-5.58106 c 4.46777,0 7.48535,-3.38379 7.48535,-8.4375 0,-5.12695 -3.01758,-8.49609 -7.48535,-8.49609 -4.45313,0 -7.45605,3.36914 -7.45605,8.49609 0,5.05371 3.00292,8.4375 7.45605,8.4375 z m 0,-2.3584 c -3.2666,0 -4.77539,-2.85644 -4.77539,-6.0791 0,-3.2666 1.50879,-6.13769 4.77539,-6.13769 3.31055,0 4.81934,2.88574 4.81934,6.13769 0,3.22266 -1.50879,6.0791 -4.81934,6.0791 z m 17.17499,2.21192 c 2.15332,0 3.94043,-0.87891 5.00976,-3.2666 V 218 h 2.54883 v -16.37695 h -2.65137 v 9.81445 c 0,2.79785 -1.77246,4.39453 -4.11621,4.39453 -2.28515,0 -3.70605,-1.50879 -3.70605,-4.02832 v -10.18066 h -2.63672 v 10.40039 c 0,4.14551 2.24121,6.18164 5.55176,6.18164 z M 759.75452,218 h 2.63672 v -10.25391 c 0,-2.21191 1.72851,-3.80859 4.08691,-3.80859 0.70312,0 1.4209,0.11719 1.58203,0.14648 v -2.65136 c -0.30762,-0.0146 -0.95215,-0.0439 -1.33301,-0.0439 -1.94824,0 -3.64746,1.09863 -4.24804,2.75391 h -0.17579 v -2.51953 h -2.54882 z m 26.46911,0.35156 c 3.12012,0 4.21875,-1.97754 4.76074,-2.88574 h 0.29297 V 218 h 2.54883 v -21.82617 h -2.63672 v 8.07129 h -0.20508 c -0.54199,-0.86426 -1.55273,-2.82715 -4.74609,-2.82715 -4.08691,0 -6.94336,3.25195 -6.94336,8.4375 0,5.21484 2.8418,8.49609 6.92871,8.49609 z m 0.39551,-2.3584 c -3.06152,0 -4.64355,-2.72461 -4.64355,-6.16699 0,-3.39844 1.53808,-6.0498 4.64355,-6.0498 3.01758,0 4.59961,2.43164 4.59961,6.0498 0,3.64746 -1.62598,6.16699 -4.59961,6.16699 z m 16.72089,2.3877 c 2.76855,0 4.30664,-1.4502 4.86328,-2.60742 h 0.17578 V 218 h 2.59277 v -10.7959 c 0,-5.1123 -3.94043,-5.78613 -6.13769,-5.78613 -2.53418,0 -5.34668,0.9082 -6.60645,3.88183 l 2.53418,0.83497 c 0.5127,-1.14258 1.78711,-2.40235 4.14551,-2.40235 2.27051,0 3.42773,1.17188 3.42773,3.20801 v 0.0879 c 0,1.21582 -1.28906,1.12793 -4.2041,1.49414 -3.03222,0.38086 -6.37207,1.06934 -6.37207,4.81934 0,3.22265 2.47559,5.03906 5.58106,5.03906 z m 0.4541,-2.3291 c -1.96289,0 -3.38379,-0.87891 -3.38379,-2.57813 0,-1.86035 1.68457,-2.47558 3.60351,-2.72461 1.01075,-0.13183 3.88184,-0.4248 4.32129,-0.9375 v 2.27051 c 0,2.00684 -1.62597,3.96973 -4.54101,3.96973 z m 18.55194,-14.42871 h -3.36914 v -3.89649 h -2.63672 v 3.89649 h -2.46094 v 2.25586 h 2.46094 v 10.07812 c 0,2.68067 1.66992,4.24805 4.49707,4.24805 0.67383,0 1.4209,-0.10254 1.96289,-0.29297 l -0.54199,-2.22656 c -0.43945,0.0879 -1.01074,0.17578 -1.34766,0.17578 -1.3916,0 -1.93359,-0.64453 -1.93359,-2.10938 v -9.87304 h 3.36914 z m 8.40063,16.75781 c 2.76856,0 4.30664,-1.4502 4.86329,-2.60742 h 0.17578 V 218 h 2.59277 v -10.7959 c 0,-5.1123 -3.94043,-5.78613 -6.1377,-5.78613 -2.53417,0 -5.34667,0.9082 -6.60644,3.88183 l 2.53418,0.83497 c 0.51269,-1.14258 1.78711,-2.40235 4.14551,-2.40235 2.2705,0 3.42773,1.17188 3.42773,3.20801 v 0.0879 c 0,1.21582 -1.28906,1.12793 -4.2041,1.49414 -3.03223,0.38086 -6.37207,1.06934 -6.37207,4.81934 0,3.22265 2.47559,5.03906 5.58105,5.03906 z m 0.45411,-2.3291 c -1.96289,0 -3.38379,-0.87891 -3.38379,-2.57813 0,-1.86035 1.68457,-2.47558 3.60351,-2.72461 1.01074,-0.13183 3.88184,-0.4248 4.32129,-0.9375 v 2.27051 c 0,2.00684 -1.62598,3.96973 -4.54101,3.96973 z m 19.70916,2.2998 c 4.08692,0 6.92871,-3.28125 6.92871,-8.49609 0,-5.18555 -2.85644,-8.4375 -6.94336,-8.4375 -3.19335,0 -4.2041,1.96289 -4.74609,2.82715 h -0.20508 v -8.07129 h -2.63672 V 218 h 2.54883 v -2.53418 h 0.29297 c 0.54199,0.9082 1.64063,2.88574 4.76074,2.88574 z m -0.3955,-2.3584 c -2.97364,0 -4.59961,-2.51953 -4.59961,-6.16699 0,-3.61816 1.58203,-6.0498 4.59961,-6.0498 3.10546,0 4.64355,2.65136 4.64355,6.0498 0,3.44238 -1.58203,6.16699 -4.64355,6.16699 z m 16.34002,2.3877 c 2.76856,0 4.30664,-1.4502 4.86328,-2.60742 h 0.17578 V 218 h 2.59278 v -10.7959 c 0,-5.1123 -3.94043,-5.78613 -6.1377,-5.78613 -2.53418,0 -5.34668,0.9082 -6.60644,3.88183 l 2.53418,0.83497 c 0.51269,-1.14258 1.78711,-2.40235 4.1455,-2.40235 2.27051,0 3.42774,1.17188 3.42774,3.20801 v 0.0879 c 0,1.21582 -1.28906,1.12793 -4.2041,1.49414 -3.03223,0.38086 -6.37207,1.06934 -6.37207,4.81934 0,3.22265 2.47558,5.03906 5.58105,5.03906 z m 0.4541,-2.3291 c -1.96289,0 -3.38379,-0.87891 -3.38379,-2.57813 0,-1.86035 1.68457,-2.47558 3.60352,-2.72461 1.01074,-0.13183 3.88184,-0.4248 4.32129,-0.9375 v 2.27051 c 0,2.00684 -1.62598,3.96973 -4.54102,3.96973 z m 17.67304,2.2998 c 3.83789,0 6.45996,-2.09472 6.45996,-4.96582 0,-2.24121 -1.3916,-3.7207 -4.36524,-4.42383 l -2.47558,-0.58593 c -1.91895,-0.45411 -2.75391,-1.12793 -2.75391,-2.34375 0,-1.36231 1.46485,-2.37305 3.41309,-2.37305 2.10937,0 3.03223,1.14258 3.48633,2.31445 l 2.38769,-0.61523 c -0.74707,-2.29981 -2.51953,-3.94043 -5.88867,-3.94043 -3.48633,0 -6.06445,1.96289 -6.06445,4.77539 0,2.2998 1.4209,3.76465 4.39453,4.46777 l 2.72461,0.64453 c 1.61133,0.38086 2.40234,1.12793 2.40234,2.25586 0,1.34766 -1.46484,2.47559 -3.75,2.47559 -1.96289,0 -3.2959,-0.80566 -3.76465,-2.60742 l -2.50488,0.60058 c 0.58594,2.82715 2.92969,4.32129 6.29883,4.32129 z m 17.45331,0 c 3.35449,0 5.80078,-1.68457 6.5625,-4.16015 l -2.54883,-0.70313 c -0.61524,1.66992 -2.06543,2.51953 -3.99903,2.51953 -2.90039,0 -4.89257,-1.875 -5.02441,-5.30273 h 11.83594 v -1.09863 c 0,-6.04981 -3.66211,-8.18848 -7.13379,-8.18848 -4.46777,0 -7.36816,3.50098 -7.36816,8.52539 0,5.03906 2.92968,8.4082 7.67578,8.4082 z m -4.99512,-9.87304 c 0.16113,-2.50489 1.875,-4.7168 4.6875,-4.7168 2.69531,0 4.2041,1.93359 4.45312,4.7168 z"
     id="text4"
     style="font-size:30px;font-family:Inter, Arial, sans-serif;letter-spacing:0.3;fill:#242833"
     aria-label="Generate a ready-to-run Go microservice from your database" />
</svg>
